<svg xmlns="http://www.w3.org/2000/svg" width="121" height="121" viewBox="0 0 121 121" fill="none"><g clip-path="url(#clip0_314_167)"><path d="M60.31 120.62C93.6183 120.62 120.62 93.6183 120.62 60.31C120.62 27.0017 93.6183 0 60.31 0C27.0017 0 0 27.0017 0 60.31C0 93.6183 27.0017 120.62 60.31 120.62Z" fill="white"></path><path d="M39.41 71C34.43 71 28.88 67.57 27.85 60.99C27.04 55.78 29.87 50.65 34.74 48.5C34.78 48.48 34.81 48.47 34.83 48.45C34.83 48.43 34.83 48.4 34.83 48.35C34.87 42.77 38.72 38.3 44.19 37.48C46.28 37.17 48.24 37.41 50.02 38.19C50.26 37.68 50.51 37.16 50.81 36.66C53.27 32.55 57.02 29.97 61.98 28.99C67.99 27.81 73.29 29.08 77.72 32.77C80.67 35.22 82.34 38.3 82.71 41.91C82.71 41.95 82.73 41.99 82.74 42.03C82.78 42.2 82.84 42.44 82.82 42.73C82.86 42.75 82.92 42.77 82.99 42.79C86.03 43.79 88.51 45.65 90.36 48.31C93.19 52.38 93.71 57.56 91.77 62.16C89.83 66.76 85.75 69.99 80.86 70.81C80.17 70.93 79.44 70.98 78.7 70.98C74.12 70.98 69.53 70.98 64.95 70.98C56.45 70.98 47.95 70.97 39.45 71C39.43 71 39.42 71 39.41 71Z" fill="#2B6DCC"></path><path d="M52.99 65.18C53.3 64.96 53.66 65 53.98 64.96C54.48 64.89 54.97 64.76 55.46 64.68C56 64.59 56.56 64.59 57.09 64.4C57.41 64.28 57.77 64.27 58.1 64.23C58.99 64.11 59.86 63.92 60.74 63.76C61.45 63.64 62.15 63.51 62.86 63.4C63.77 63.26 64.67 63.07 65.57 62.9C65.82 62.85 65.83 62.74 65.68 62.56C64.65 61.34 63.62 60.13 62.6 58.91C62.12 58.34 61.66 57.76 61.18 57.19C60.75 56.68 60.29 56.18 59.86 55.67C59.63 55.39 59.44 55.07 59.18 54.81C59.05 54.68 59.06 54.5 59.12 54.34C59.44 53.44 59.81 52.56 60.09 51.66C60.33 50.89 60.66 50.17 60.9 49.4C61.13 48.65 61.45 47.93 61.72 47.2C61.92 46.65 62.12 46.09 62.32 45.54C62.38 45.37 62.45 45.21 62.51 45.04C62.54 44.95 62.56 44.85 62.69 44.85C62.8 44.85 62.86 44.92 62.91 45C63.2 45.51 63.49 46.02 63.79 46.53C64.14 47.13 64.48 47.73 64.83 48.33C65.51 49.5 66.2 50.67 66.86 51.85C67.25 52.54 67.66 53.21 68.07 53.89C68.45 54.52 68.78 55.19 69.14 55.83C69.55 56.55 69.98 57.25 70.39 57.97C71.23 59.43 72.05 60.9 72.89 62.36C73.39 63.23 73.89 64.08 74.4 64.94C74.54 65.18 74.5 65.27 74.21 65.3C74.14 65.31 74.07 65.3 74 65.3C67.32 65.3 60.64 65.3 53.96 65.3C53.63 65.27 53.3 65.3 52.99 65.18Z" fill="white"></path><path d="M49.23 62.91C48.29 62.91 47.36 62.91 46.42 62.91C45.97 62.91 45.91 62.81 46.13 62.42C46.33 62.07 46.54 61.74 46.75 61.4C47.54 60.06 48.3 58.71 49.06 57.36C49.54 56.51 50.05 55.68 50.53 54.83C51.17 53.7 51.84 52.6 52.46 51.46C52.93 50.59 53.51 49.82 54.36 49.22C54.93 48.82 55.45 48.32 55.98 47.86C57.08 46.91 58.2 45.99 59.31 45.06C59.99 44.48 60.64 43.87 61.38 43.36C61.45 43.31 61.49 43.16 61.6 43.26C61.69 43.34 61.57 43.4 61.54 43.47C60.98 44.88 60.31 46.25 59.65 47.61C59.13 48.7 58.65 49.81 58.11 50.89C57.66 51.79 57.24 52.71 56.82 53.64C56.36 54.67 55.87 55.68 55.39 56.71C54.64 58.32 53.91 59.94 53.17 61.55C53.01 61.9 52.82 62.24 52.68 62.6C52.57 62.85 52.4 62.91 52.15 62.91C51.17 62.91 50.2 62.92 49.23 62.91C49.23 62.92 49.23 62.92 49.23 62.91Z" fill="white"></path><path d="M61.31 83.24V70C61.31 69.45 60.86 69 60.31 69C59.76 69 59.31 69.45 59.31 70V83.24C57.33 83.7 55.84 85.47 55.84 87.59C55.84 90.06 57.85 92.06 60.31 92.06C62.78 92.06 64.78 90.05 64.78 87.59C64.79 85.47 63.3 83.7 61.31 83.24ZM60.31 90.06C58.95 90.06 57.84 88.95 57.84 87.59C57.84 86.23 58.95 85.12 60.31 85.12C61.67 85.12 62.78 86.23 62.78 87.59C62.79 88.95 61.68 90.06 60.31 90.06Z" fill="#2B6DCC"></path><path d="M75.31 77.02V70C75.31 69.45 74.86 69 74.31 69C73.76 69 73.31 69.45 73.31 70V77.02C71.33 77.48 69.84 79.25 69.84 81.37C69.84 83.84 71.85 85.84 74.31 85.84C76.78 85.84 78.78 83.83 78.78 81.37C78.79 79.25 77.3 77.48 75.31 77.02ZM74.31 83.84C72.95 83.84 71.84 82.73 71.84 81.37C71.84 80.01 72.95 78.9 74.31 78.9C75.67 78.9 76.78 80.01 76.78 81.37C76.79 82.73 75.68 83.84 74.31 83.84Z" fill="#2B6DCC"></path><path d="M47.31 77.02V70C47.31 69.45 46.86 69 46.31 69C45.76 69 45.31 69.45 45.31 70V77.02C43.33 77.48 41.84 79.25 41.84 81.37C41.84 83.84 43.85 85.84 46.31 85.84C48.78 85.84 50.78 83.83 50.78 81.37C50.79 79.25 49.3 77.48 47.31 77.02ZM46.31 83.84C44.95 83.84 43.84 82.73 43.84 81.37C43.84 80.01 44.95 78.9 46.31 78.9C47.67 78.9 48.78 80.01 48.78 81.37C48.79 82.73 47.68 83.84 46.31 83.84Z" fill="#2B6DCC"></path></g><defs><clipPath id="clip0_314_167"><rect width="120.63" height="120.63" fill="white"></rect></clipPath></defs></svg>