<svg xmlns="http://www.w3.org/2000/svg" width="121" height="121" viewBox="0 0 121 121" fill="none"><g clip-path="url(#clip0_314_137)"><path d="M60.31 120.62C93.6183 120.62 120.62 93.6183 120.62 60.31C120.62 27.0017 93.6183 0 60.31 0C27.0017 0 0 27.0017 0 60.31C0 93.6183 27.0017 120.62 60.31 120.62Z" fill="white"></path><path d="M82.97 59.54H53.89L49.6 37.74H86.62C87.9 37.74 89.08 38.32 89.86 39.34C90.64 40.36 90.9 41.65 90.57 42.88L86.92 56.5C86.43 58.29 84.81 59.54 82.97 59.54Z" fill="#FFE966"></path><path d="M75.99 87.06H59.31L55.02 65.27H79.79C80.99 65.27 82.09 65.81 82.82 66.76C83.55 67.71 83.79 68.91 83.48 70.07L79.68 84.23C79.23 85.9 77.71 87.06 75.99 87.06Z" fill="#E68001"></path><path d="M60.06 65.28H55.02L59.31 87.07H64.35L60.06 65.28Z" fill="#CC6600"></path><path d="M54.63 37.75H49.6L53.89 59.54H58.93L54.63 37.75Z" fill="#E8CC42"></path><path d="M61.35 87.06H43.22C41.08 87.06 39.23 85.54 38.82 83.44L30.01 38.72C29.75 37.42 30.09 36.08 30.93 35.05C31.77 34.02 33.02 33.43 34.35 33.43H46.76C49.09 33.43 51.11 35.09 51.56 37.38L61.35 87.06Z" fill="#F29800"></path></g><defs><clipPath id="clip0_314_137"><rect width="120.63" height="120.63" fill="white"></rect></clipPath></defs></svg>