<svg xmlns="http://www.w3.org/2000/svg" width="121" height="121" viewBox="0 0 121 121" fill="none"><g clip-path="url(#clip0_314_149)"><path d="M60.31 120.62C93.6183 120.62 120.62 93.6183 120.62 60.31C120.62 27.0017 93.6183 0 60.31 0C27.0017 0 0 27.0017 0 60.31C0 93.6183 27.0017 120.62 60.31 120.62Z" fill="white"></path><path d="M60.13 90.92C77.041 90.92 90.75 77.211 90.75 60.3C90.75 43.389 77.041 29.68 60.13 29.68C43.219 29.68 29.51 43.389 29.51 60.3C29.51 77.211 43.219 90.92 60.13 90.92Z" fill="#00919C"></path><path d="M35.37 54.97C32.43 54.97 30.04 57.36 30.04 60.3C30.04 63.24 32.43 65.63 35.37 65.63C37.7 65.63 39.67 64.12 40.39 62.03H47.96V58.57H40.39C39.67 56.49 37.7 54.97 35.37 54.97Z" fill="#82EBF1"></path><path d="M62.04 80.23V72.58H58.58V80.23C56.49 80.95 54.98 82.92 54.98 85.25C54.98 88.19 57.37 90.58 60.31 90.58C63.25 90.58 65.64 88.19 65.64 85.25C65.64 82.92 64.13 80.95 62.04 80.23Z" fill="#82EBF1"></path><path d="M58.59 40.38V47.95H62.05V40.38C64.14 39.66 65.65 37.69 65.65 35.36C65.65 32.42 63.26 30.03 60.32 30.03C57.38 30.03 54.99 32.42 54.99 35.36C54.98 37.69 56.5 39.66 58.59 40.38Z" fill="#82EBF1"></path><path d="M60.13 73.67C67.514 73.67 73.5 67.684 73.5 60.3C73.5 52.916 67.514 46.93 60.13 46.93C52.746 46.93 46.76 52.916 46.76 60.3C46.76 67.684 52.746 73.67 60.13 73.67Z" fill="#20CFDB"></path><path d="M60.13 65.64C57.19 65.64 54.8 63.25 54.8 60.31C54.8 57.37 57.19 54.98 60.13 54.98C63.07 54.98 65.46 57.37 65.46 60.31C65.46 63.25 63.07 65.64 60.13 65.64Z" fill="#82EBF1"></path><path d="M85.26 54.97C82.93 54.97 80.96 56.48 80.24 58.57H64.47V62.03H80.24C80.96 64.12 82.93 65.63 85.26 65.63C88.2 65.63 90.59 63.24 90.59 60.3C90.59 57.36 88.2 54.97 85.26 54.97Z" fill="#82EBF1"></path></g><defs><clipPath id="clip0_314_149"><rect width="120.63" height="120.63" fill="white"></rect></clipPath></defs></svg>