<svg xmlns="http://www.w3.org/2000/svg" width="121" height="121" viewBox="0 0 121 121" fill="none"><g clip-path="url(#clip0_314_124)"><path d="M60.31 120.62C93.6183 120.62 120.62 93.6183 120.62 60.31C120.62 27.0017 93.6183 0 60.31 0C27.0017 0 0 27.0017 0 60.31C0 93.6183 27.0017 120.62 60.31 120.62Z" fill="white"></path><path d="M36.34 63.49C35.79 63.49 35.34 63.04 35.34 62.49C35.34 48.47 46.75 37.06 60.77 37.06C61.32 37.06 61.77 37.51 61.77 38.06C61.77 38.61 61.32 39.06 60.77 39.06C47.85 39.06 37.34 49.57 37.34 62.49C37.34 63.04 36.89 63.49 36.34 63.49Z" fill="#050F86"></path><path d="M67.16 87.08C66.72 87.08 66.32 86.79 66.2 86.34C66.06 85.81 66.37 85.26 66.9 85.11C77.09 82.36 84.21 73.05 84.21 62.48C84.21 61.93 84.66 61.48 85.21 61.48C85.76 61.48 86.21 61.93 86.21 62.48C86.21 73.95 78.49 84.05 67.42 87.04C67.34 87.07 67.25 87.08 67.16 87.08Z" fill="#050F86"></path><path d="M65.79 38.99C68.49 40.86 71.08 42.64 73.64 44.47C73.81 44.59 73.85 45.14 73.77 45.42C72.34 50.04 70.87 54.65 69.42 59.27C68.68 61.6 67.95 63.94 67.21 66.28C67.13 66.52 67.08 66.78 67.15 67.14C75.17 58.29 83.2 49.44 91.35 40.45C91.38 40.87 91.42 41.11 91.42 41.35C91.42 45.31 91.42 49.28 91.43 53.24C91.43 53.75 91.35 54.09 90.87 54.37C82.67 59.1 74.49 63.86 66.3 68.61C66.16 68.69 66.01 68.75 65.8 68.85C65.79 58.88 65.79 49.01 65.79 38.99Z" fill="#002050"></path><path d="M65.74 27.55C74.03 32.05 82.19 36.49 90.42 40.96C90.21 41.15 90.06 41.29 89.9 41.41C87.51 43.13 85.12 44.84 82.74 46.58C82.3 46.9 81.96 46.91 81.48 46.68C76.47 44.21 71.46 41.77 66.43 39.34C65.91 39.09 65.72 38.8 65.73 38.22C65.75 34.72 65.74 31.23 65.74 27.55Z" fill="#002050"></path><path d="M63.3 72.15C63.3 71.89 63.2 71.7 62.96 71.59C62.67 71.46 62.54 71.69 62.38 71.85C61.75 72.49 61.16 73.16 60.5 73.77C59 75.16 57.48 76.53 55.96 77.9C55.97 81.52 55.99 85.13 55.99 88.75C55.99 89.67 55.71 89.75 54.34 89.27C52.05 88.93 49.77 88.54 47.44 88.48C42.96 88.36 38.6 89.1 34.34 90.43C34.06 90.52 33.76 90.57 33.48 90.65C32.92 90.81 31.52 91.47 31.52 91.47C31.52 91.47 32.53 90.74 33.28 90.46C39.95 88 46.73 87.44 53.69 88.71C53.98 88.76 54.28 88.81 54.57 88.86C55.24 88.8 55.38 88.42 55.37 87.79C55.35 80.64 55.36 73.49 55.36 66.34C54.75 65.95 54.52 66.29 54.29 66.83C52.44 71.09 49.99 74.96 46.8 78.35C46.48 78.7 46.37 79.05 46.37 79.5C46.39 81.62 46.36 83.74 46.39 85.86C46.4 86.44 46.21 86.67 45.61 86.72C43.33 86.89 41.08 87.26 38.86 87.84C36.87 88.51 34.88 89.16 32.94 89.99C34.79 88.84 36.74 87.95 38.86 87.47C40.73 86.85 42.66 86.48 44.6 86.31C45.55 86.22 45.81 85.9 45.8 84.98C45.77 77.21 45.78 69.44 45.78 61.67C45.78 61.47 45.77 61.27 45.77 61.07C45.77 60.73 45.56 60.62 45.27 60.56C44.89 60.49 44.85 60.74 44.79 61.02C44.63 61.77 44.48 62.52 44.28 63.25C41.53 73.18 36.33 81.73 29.4 89.26C28.74 89.97 28.42 90.66 28.48 91.63C28.56 92.94 28.5 92.93 29.7 92.57C40.43 89.32 51.15 89.4 61.85 92.76C63.09 93.15 63.3 93 63.31 91.68C63.31 85.37 63.31 79.06 63.31 72.75C63.3 72.55 63.3 72.35 63.3 72.15Z" fill="#00A2E7"></path></g><defs><clipPath id="clip0_314_124"><rect width="120.63" height="120.63" fill="white"></rect></clipPath></defs></svg>