<svg xmlns="http://www.w3.org/2000/svg" width="121" height="121" viewBox="0 0 121 121" fill="none"><g clip-path="url(#clip0_314_185)"><path d="M60.31 120.62C93.6183 120.62 120.62 93.6183 120.62 60.31C120.62 27.0017 93.6183 0 60.31 0C27.0017 0 0 27.0017 0 60.31C0 93.6183 27.0017 120.62 60.31 120.62Z" fill="white"></path><path d="M54.79 92.89C54.73 92.89 54.67 92.89 54.61 92.89C53.65 92.84 52.75 92.37 52.02 91.55C50.2 89.47 48.38 87.39 46.56 85.31C44.58 83.04 42.6 80.78 40.61 78.52L39.79 77.59C38.95 76.65 38.08 75.68 37.29 74.64L28.37 64.52C28.02 64.13 27.66 63.73 27.34 63.27C25.91 61.25 26.04 58.75 27.66 56.89C31.67 52.3 35.68 47.71 39.7 43.13L43.88 38.36C46.56 35.3 49.23 32.25 51.91 29.19C52.77 28.21 53.8 27.7 54.89 27.69C55.99 27.69 57.03 28.21 57.9 29.2L60.8 32.51L60.39 33.15C60.3 33.29 60.22 33.43 60.1 33.56L52.57 41.8C51.79 42.64 51.3 43.22 51.28 44.01C51.42 44.57 51.86 45.01 52.35 45.52C52.49 45.67 52.63 45.81 52.77 45.96C55.14 48.54 57.51 51.12 59.88 53.69L63.5 57.61C63.73 57.84 63.99 58.11 64.18 58.47C64.71 59.43 65.25 61.37 62.89 63.59C61.34 65.05 59.88 66.68 58.47 68.26C57.35 69.51 56.2 70.8 54.99 72.02C54.28 72.74 53.58 73.53 52.91 74.29C52.55 74.7 52.18 75.12 51.81 75.52C51.24 76.15 51.34 77.44 52.01 78.13C53.77 79.93 55.47 81.83 57.11 83.67L57.31 83.9C57.62 84.25 57.94 84.58 58.27 84.92C59.01 85.68 59.77 86.47 60.4 87.41L60.84 88.07L60.3 88.65C59.96 89.02 59.63 89.39 59.3 89.77C58.72 90.43 58.13 91.12 57.44 91.75C56.63 92.5 55.72 92.89 54.79 92.89Z" fill="#8C2B84"></path><path d="M64.52 92.98C63.46 92.98 62.42 92.48 61.59 91.58C60.96 90.9 60.32 90.22 59.68 89.55L58.73 88.53C58.2 87.74 57.54 87.05 56.83 86.32C56.49 85.97 56.15 85.61 55.82 85.25L55.61 85.02C53.98 83.2 52.29 81.31 50.57 79.54C49.16 78.09 49.05 75.59 50.33 74.19C50.69 73.79 51.05 73.38 51.41 72.98C52.1 72.2 52.81 71.39 53.57 70.63C54.81 69.38 56.02 68.04 57.18 66.75C58.56 65.22 59.99 63.64 61.5 62.16C62.88 60.82 62.53 59.69 62.39 59.37C62.36 59.3 62.22 59.16 62.11 59.06C62.02 58.97 61.93 58.89 61.85 58.8L58.41 55.06C56.04 52.48 53.66 49.91 51.3 47.32C51.18 47.19 51.05 47.06 50.92 46.92C50.27 46.25 49.53 45.49 49.3 44.31L49.28 44.13C49.26 42.44 50.28 41.34 51.1 40.44L58.93 31.81C59.67 31.23 60.29 30.5 60.95 29.72C61.13 29.51 61.31 29.29 61.5 29.08C62.29 28.17 63.35 27.66 64.46 27.65C64.47 27.65 64.48 27.65 64.5 27.65C65.63 27.65 66.71 28.16 67.54 29.07C70.89 32.77 74.28 36.45 77.66 40.12L81.69 44.5C81.81 44.64 81.88 44.77 81.91 44.83L82.71 46.47L80.82 46.31C80.67 46.3 80.52 46.28 80.37 46.25C79.44 46.02 78.87 46.16 78.33 46.75C77.59 47.57 76.83 48.38 76.06 49.18C75.07 50.22 74.05 51.29 73.11 52.38C72.59 52.98 72.05 53.56 71.51 54.13C71.17 54.49 70.83 54.86 70.49 55.23C69.67 56.13 67.99 58.04 67.6 58.49L67.52 58.58C66.79 59.41 66.91 61.5 67.75 62.38C68.47 63.14 69.17 63.93 69.87 64.72C70.69 65.65 71.53 66.61 72.4 67.49C73.46 68.57 74.49 69.69 75.49 70.78C76.39 71.77 77.32 72.78 78.26 73.75C78.83 74.34 79.42 74.52 80.22 74.37L80.35 74.96L80.26 74.36C81.09 74.16 81.51 74.6 81.69 74.88L82.12 75.53L70.31 88.45C69.36 89.48 68.41 90.52 67.47 91.56C66.64 92.47 65.6 92.98 64.52 92.98Z" fill="#D87ABE"></path><path d="M80.7 76.99L80.3 76.39C78.97 76.56 77.8 76.15 76.83 75.16C75.86 74.17 74.92 73.14 74.01 72.14C73.03 71.06 72.01 69.95 70.98 68.9C70.07 67.98 69.2 67 68.37 66.05C67.69 65.28 67.01 64.51 66.31 63.76C64.76 62.13 64.62 58.85 66.04 57.26L66.12 57.17C66.51 56.72 68.2 54.8 69.03 53.89C69.37 53.51 69.72 53.14 70.07 52.77C70.59 52.21 71.11 51.66 71.61 51.08C72.58 49.95 73.62 48.86 74.62 47.81C75.37 47.02 76.12 46.23 76.85 45.42C77.89 44.26 79.21 43.9 80.86 44.31C80.9 44.32 80.94 44.32 80.98 44.32L81.52 44.38L84.83 47.97C87.55 50.92 90.27 53.87 92.98 56.83C94.71 58.72 94.73 61.68 93.02 63.57L82.22 75.5C82.07 75.66 81.91 75.82 81.75 75.97L80.7 76.99Z" fill="#EDA4D9"></path></g><defs><clipPath id="clip0_314_185"><rect width="120.63" height="120.63" fill="white"></rect></clipPath></defs></svg>