<svg xmlns="http://www.w3.org/2000/svg" width="121" height="121" viewBox="0 0 121 121" fill="none"><g clip-path="url(#clip0_314_160)"><path d="M60.31 120.62C93.6183 120.62 120.62 93.6183 120.62 60.31C120.62 27.0017 93.6183 0 60.31 0C27.0017 0 0 27.0017 0 60.31C0 93.6183 27.0017 120.62 60.31 120.62Z" fill="white"></path><path d="M56.15 91.56C53.47 91.56 50.79 91.16 48.2 90.33C41 88.05 34.99 82.63 31.7 75.46C28.41 68.29 28.22 60.19 31.18 53.24C35.09 44.06 44.04 37.54 53.98 36.63L55.07 36.53V65.24H83.89L83.88 67.12C82.96 75.17 78.38 82.41 71.31 86.99C66.67 90.01 61.4 91.56 56.15 91.56Z" fill="#0377D1"></path><path d="M91.35 67.25H53.27V29.26L54.19 29.18C55.17 29.1 56.15 29.06 57.1 29.06C76.09 29.06 91.54 44.51 91.54 63.5C91.54 64.43 91.5 65.38 91.42 66.32L91.35 67.25Z" fill="#28B2EF"></path><path d="M72.44 67.25H53.27V48.08H68.43C70.64 48.08 72.43 49.87 72.43 52.08V67.25H72.44Z" fill="#8FEFFF"></path></g><defs><clipPath id="clip0_314_160"><rect width="120.63" height="120.63" fill="white"></rect></clipPath></defs></svg>